<?xml version="1.0" encoding="UTF-8"?>
<svg id="Layer_1" data-name="Layer 1" xmlns="http://www.w3.org/2000/svg" viewBox="0 0 383.32 383.37">
  <defs>
    <style>
      .cls-1 {
        fill: #fff;
      }
    </style>
  </defs>
  <circle class="cls-1" cx="203.82" cy="204.87" r="174.5"/>
  <rect class="cls-1" x="7.32" y="80.37" width="139" height="124" rx="12" ry="12"/>
  <g>
    <path d="M193.18,383.37c-6.76-.96-13.55-1.71-20.27-2.9-37.11-6.56-68.91-23.42-95.4-50.12-28.25-28.47-44.9-62.78-50.36-102.5-.81-5.89-1.08-11.86-1.63-18.11-2.61,0-4.97,.07-7.32-.01-9.75-.34-18.02-8.19-18.08-17.96-.18-31.44-.17-62.88-.01-94.32,.05-9.8,8.21-17.71,17.96-18.07,4.11-.15,8.23-.13,12.35-.03,3.59,.09,5.79,2.27,5.81,5.49,.02,3.15-2.21,5.5-5.72,5.65-3.61,.16-7.23,0-10.85,.07-5.35,.11-8.37,3.06-8.38,8.4-.04,30.32-.04,60.64,0,90.96,0,5.74,3,8.6,8.91,8.61,14.35,.04,28.69,.16,43.04-.06,5.91-.09,10.86,1.55,15.59,5.08,10.06,7.54,20.36,14.76,31.29,22.63,0-4.34-.01-7.98,0-11.63,.05-9.88,5.96-15.88,15.78-16,2.74-.04,5.49,.01,8.23-.01,6.36-.06,9.04-2.71,9.06-9.18,.04-17.34,.01-34.69,.01-52.03,0-12.35,.02-24.7,0-37.06-.01-7.15-2.56-9.73-9.65-9.73-24.45-.02-48.9,0-73.35,0-1.12,0-2.25,.07-3.37-.05-3.28-.35-5.4-2.58-5.41-5.6,0-3.22,2.19-5.46,5.76-5.54,5.49-.11,10.98,.12,16.46-.14,1.78-.09,3.95-.82,5.18-2.02,28.45-27.68,62.3-44.31,101.56-49.93,4.44-.64,8.93-.92,13.41-1.23,4.34-.3,8.69-.43,13.54-.65,0-1.62,0-3.2,0-4.77C207.38,7.83,215.1,.03,227.8,.03c32.06-.02,64.12,0,96.18,0,6.11,0,12.23-.05,18.34,.01,11.23,.13,19.31,8.16,19.33,19.44,.06,30.57,.27,61.14-.21,91.7-.08,5.43,1.18,9.76,3.45,14.33,10.02,20.21,15.93,41.58,17.76,64.08,.1,1.21,.44,2.4,.67,3.6v22.46c-.22,1.2-.55,2.4-.65,3.62-2.58,31.37-12.81,60.02-30.49,86.03-.69,1.02-1.44,2.1-2.4,2.83-2.21,1.69-4.69,1.84-6.89,.06-2.16-1.75-2.84-4.11-1.49-6.69,.8-1.54,1.88-2.94,2.8-4.41,33.44-53.41,36.95-108.79,10.91-166.11-.54-1.19-1.24-2.31-1.87-3.46-.08,.39-.16,.78-.24,1.16-5.55,.84-11.1,1.68-16.71,2.53,.02-.05-.08,.09-.05,.17,.22,.57,.44,1.16,.72,1.7,11.55,22.49,9.66,44.28-3.82,65.2-2.35,3.65-3.36,6.95-3.33,11.25,.2,29.07,.11,58.14,.1,87.21,0,14.43-7.49,21.95-21.87,21.97-14.35,.02-28.69-.02-43.04,.04-1.72,0-3.45,.54-6.41,1.04,8.93,11.38,17.12,21.83,25.35,32.31,1.1-.58,1.87-.97,2.62-1.4,14.24-7.99,26.95-17.95,38.35-29.63,2.84-2.91,6.22-3.11,8.59-.8,2.51,2.44,2.39,5.57-.53,8.56-25.63,26.22-56.32,43.34-92.26,50.76-8.27,1.71-16.72,2.54-25.09,3.77h-22.46Zm56.96-56.12c-.35,.15-.6,.2-.8,.34-7.59,5.46-15.22,10.87-22.75,16.42-3.84,2.82-7.75,4.61-12.44,2.25-4.67-2.35-5.76-6.5-5.62-11.31,.11-3.86-.05-7.74,.04-11.6,.07-3.33-1.43-4.8-4.76-4.64-2.36,.12-4.74,.03-7.11,.02-13.63-.09-21.33-7.78-21.34-21.38-.01-23.58,0-47.16-.01-70.74,0-1.3-.11-2.61-.19-4.37-6.09,3.76-9.59,8.87-11.74,15-1.03,2.94-1.78,5.97-2.81,8.9-1.32,3.74-4.38,5.51-7.45,4.47-2.99-1.01-4.3-3.99-3.27-7.72,.73-2.64,1.64-5.23,2.45-7.85,3.47-11.17,10.28-19.47,20.84-24.69,.97-.48,1.99-1.85,2.1-2.9,1.37-12.88,8.51-19.41,21.47-19.41,18.84,0,37.67,0,56.51,0h4.26c.48-8.87,4.61-15.58,10.51-21.53,2.42-2.45,4.38-5.44,6.16-8.42,2.99-5.02,4.77-10.47,5.02-16.97-1.6,1.08-2.73,1.79-3.82,2.57-6.18,4.44-12.31,8.94-18.53,13.32-3.51,2.47-7.36,3.12-11.26,.94-3.73-2.08-5.3-5.44-5.23-9.66,.04-2.74,0-5.49,0-8.23,0-9.79,0-9.71-10.01-9.57-2.36,.03-3.18,.77-3.52,3.12-4.33,29.94-33.29,47.68-61.94,37.97-3.46-1.17-6.8-2.72-10.47-4.21,0,7.88,.07,15.36-.02,22.84-.14,11.62-8.01,19.42-19.56,19.53-2.99,.03-5.99,.02-8.98,0-3.08-.02-4.59,1.41-4.54,4.57,.07,4.12-.1,8.24,.05,12.35,.16,4.62-1.19,8.42-5.46,10.63-4.25,2.21-8.14,1.11-11.86-1.61-8.14-5.97-16.75-11.39-24.45-17.87-7.63-6.42-15.74-9.29-25.65-8.18-5.5,.62-11.12,.11-16.96,.11,.82,23.34,6.03,45.04,15.84,65.97,1.2-.89,2.14-1.7,3.17-2.34,5.4-3.31,10.55-7.22,16.3-9.73,11.6-5.07,21.14-2.18,29.51,7.24,2.35,2.65,5.75,4.92,9.11,6.03,11.3,3.74,20.41,.43,28.63-9.61,2.63-3.21,5.71-3.95,8.4-2.01,2.83,2.04,3.03,5.38,.5,8.89-15.49,21.37-44.81,18.88-56.2,3.09-3.33-4.61-8.23-5.82-13.71-4.06-7.89,2.53-14.06,7.73-20.29,12.76,48.99,87.44,152.56,102.86,215.06,70.8-7.69-9.8-15.37-19.6-23.17-29.54Zm1.45-180.4c1.67-1.14,2.7-1.8,3.69-2.51,9.62-6.92,19.3-13.75,28.8-20.82,4.01-2.98,8.29-4.26,13.22-4.23,14.6,.1,29.19,.06,43.79,.02,6.65-.02,9.33-2.72,9.34-9.3,.02-29.82,.02-59.64,0-89.47,0-6.54-2.79-9.27-9.41-9.28-37.68-.01-75.35-.01-113.03,0-6.75,0-9.43,2.74-9.44,9.62-.02,13.48,0,26.95,0,40.43,0,1,.06,2-.03,2.99-.31,3.49-2.6,5.69-5.77,5.62-3.21-.07-5.34-2.26-5.39-5.9-.09-6.36-.03-12.73-.03-19.09,0-2.58,0-5.15,0-8.06-20.58-.16-40.08,2.91-58.96,9.62,2.5,4.21,5.25,7.97,7.13,12.13,6.49,14.41,8.58,28.89-.44,43.22-.54,.86-.6,2.14-.6,3.23-.04,15.22-.06,30.45,.04,45.67,0,1.19,.53,2.83,1.4,3.5,8.2,6.31,17.5,9.7,27.88,8.65,17.83-1.79,30.87-15.39,32.29-33.24,.08-.97-.63-2.34-1.42-3-5.01-4.23-7.45-9.51-7.34-16.07,.1-6.11,0-12.23,.03-18.34,.02-4.73,2.03-7.22,5.68-7.15,3.46,.07,5.5,2.6,5.53,7.01,.04,6.24-.04,12.48,.03,18.72,.06,5.46,2.84,8.3,8.27,8.47,3.49,.11,7-.11,10.48,.1,8.65,.54,14.18,6.49,14.27,15.14,.04,3.85,0,7.7,0,12.31Zm-31.82,187.9c1.63-1.04,2.68-1.64,3.65-2.33,9.51-6.84,19.09-13.6,28.48-20.61,4.1-3.06,8.42-4.42,13.53-4.36,14.59,.17,29.18,.1,43.77,.04,6.25-.03,9.42-2.8,9.44-8.61,.08-30.31,.08-60.62,0-90.93-.01-5.58-3.13-8.62-8.62-8.63-38.29-.04-76.58-.04-114.86,0-5.3,0-8.51,3.09-8.53,8.35-.08,30.44-.07,60.87,0,91.31,.01,5.33,3.02,8.21,8.42,8.49,2.86,.15,5.74,.03,8.6,.05,10.29,.06,15.98,5.67,16.12,15.91,.05,3.57,0,7.13,0,11.34Zm103.4-142.17c13.34-15.62,12.99-46.12-.53-60.59-.68-.72-1.86-1.35-2.82-1.37-8.09-.11-16.19-.09-24.29-.04-2.75,.02-4.32,1.14-4.37,4.28-.06,3.6-.5,7.2-1,10.78-1.69,12.19-7.5,22.26-16.05,30.92-3.04,3.08-5.08,6.65-5.14,11.49h4.21c11.71,0,23.42,.09,35.13-.04,5.42-.06,10.37,1.02,14.86,4.57ZM149.67,85.58c.4-14.11-4.02-25.13-12.9-34.54-15.84,7.14-30.11,16.09-43.59,28.25,13.63,0,26.08,.14,38.52-.06,6.45-.1,12.41,.8,17.96,6.34Z"/>
    <path d="M109.84,179.22c-1.29,1.25-2.59,3.33-4.45,4.15-2.68,1.19-5.26-.02-6.5-2.78-1.58-3.51-2.96-7.13-4.19-10.79-.67-2.01-1.73-2.64-3.81-2.62-9.1,.1-18.21,.11-27.31,0-2.11-.03-3.13,.67-3.77,2.64-1.08,3.31-2.36,6.56-3.68,9.79-1.45,3.52-4.32,4.92-7.43,3.79-3-1.08-4.34-4.21-3.02-7.72,8.18-21.8,16.43-43.56,24.64-65.35,1.18-3.13,3.32-4.96,6.7-5.01,3.54-.05,5.77,1.79,7.02,5.09,8.22,21.65,16.48,43.28,24.71,64.93,.35,.92,.54,1.89,1.1,3.88Zm-20.51-23.4c-4.03-10.55-7.89-20.67-12.16-31.87-4.25,11.26-8.08,21.41-12.03,31.87h24.19Z"/>
    <path class="cls-1" d="M250.14,327.25c7.8,9.94,15.48,19.74,23.17,29.54-62.5,32.05-166.07,16.64-215.06-70.8,6.23-5.03,12.39-10.22,20.29-12.76,5.48-1.76,10.38-.55,13.71,4.06,11.39,15.79,40.71,18.28,56.2-3.09,2.54-3.5,2.33-6.84-.5-8.89-2.69-1.94-5.77-1.2-8.4,2.01-8.22,10.04-17.33,13.35-28.63,9.61-3.36-1.11-6.75-3.38-9.11-6.03-8.37-9.42-17.91-12.31-29.51-7.24-5.75,2.51-10.9,6.42-16.3,9.73-1.04,.64-1.97,1.44-3.17,2.34-9.81-20.93-15.02-42.63-15.84-65.97,5.84,0,11.46,.51,16.96-.11,9.91-1.11,18.02,1.76,25.65,8.18,7.71,6.48,16.31,11.9,24.45,17.87,3.72,2.72,7.6,3.82,11.86,1.61,4.26-2.21,5.62-6.01,5.46-10.63-.14-4.11,.03-8.23-.05-12.35-.06-3.16,1.46-4.58,4.54-4.57,2.99,.02,5.99,.02,8.98,0,11.56-.11,19.42-7.91,19.56-19.53,.09-7.48,.02-14.96,.02-22.84,3.68,1.49,7.01,3.03,10.47,4.21,28.64,9.72,57.6-8.02,61.94-37.97,.34-2.35,1.17-3.09,3.52-3.12,10.01-.14,10.01-.22,10.01,9.57,0,2.74,.03,5.49,0,8.23-.06,4.21,1.51,7.58,5.23,9.66,3.9,2.18,7.75,1.53,11.26-.94,6.22-4.38,12.35-8.88,18.53-13.32,1.08-.78,2.21-1.49,3.82-2.57-.25,6.49-2.03,11.95-5.02,16.97-1.78,2.98-3.74,5.97-6.16,8.42-5.89,5.96-10.02,12.66-10.51,21.53h-4.26c-18.84,0-37.67,0-56.51,0-12.97,0-20.1,6.53-21.47,19.41-.11,1.05-1.13,2.42-2.1,2.9-10.56,5.22-17.37,13.52-20.84,24.69-.81,2.62-1.72,5.21-2.45,7.85-1.03,3.73,.28,6.71,3.27,7.72,3.07,1.04,6.13-.73,7.45-4.47,1.03-2.93,1.78-5.97,2.81-8.9,2.14-6.13,5.64-11.24,11.74-15,.08,1.76,.19,3.06,.19,4.37,.01,23.58,0,47.16,.01,70.74,0,13.6,7.7,21.3,21.34,21.38,2.37,.01,4.74,.1,7.11-.02,3.33-.17,4.83,1.3,4.76,4.64-.08,3.87,.07,7.74-.04,11.6-.13,4.81,.95,8.95,5.62,11.31,4.69,2.36,8.61,.58,12.44-2.25,7.53-5.54,15.16-10.96,22.75-16.42,.19-.14,.45-.2,.8-.34Z"/>
    <path class="cls-1" d="M251.59,146.84c0-4.6,.03-8.45,0-12.31-.09-8.66-5.63-14.6-14.27-15.14-3.48-.22-6.99,0-10.48-.1-5.43-.17-8.21-3.01-8.27-8.47-.07-6.24,.01-12.48-.03-18.72-.03-4.42-2.07-6.94-5.53-7.01-3.65-.08-5.66,2.42-5.68,7.15-.02,6.11,.08,12.23-.03,18.34-.11,6.56,2.33,11.84,7.34,16.07,.78,.66,1.49,2.02,1.42,3-1.41,17.85-14.46,31.45-32.29,33.24-10.38,1.04-19.68-2.34-27.88-8.65-.87-.67-1.39-2.31-1.4-3.5-.09-15.22-.07-30.45-.04-45.67,0-1.09,.06-2.36,.6-3.23,9.02-14.33,6.93-28.81,.44-43.22-1.87-4.16-4.62-7.92-7.13-12.13,18.88-6.71,38.38-9.78,58.96-9.62,0,2.9,0,5.48,0,8.06,0,6.36-.06,12.73,.03,19.09,.05,3.64,2.17,5.83,5.39,5.9,3.17,.07,5.46-2.13,5.77-5.62,.09-.99,.03-2,.03-2.99,0-13.48-.01-26.95,0-40.43,0-6.88,2.68-9.62,9.44-9.62,37.68-.01,75.35-.01,113.03,0,6.63,0,9.41,2.74,9.41,9.28,.02,29.82,.02,59.64,0,89.47,0,6.59-2.69,9.28-9.34,9.3-14.6,.04-29.19,.08-43.79-.02-4.93-.03-9.22,1.25-13.22,4.23-9.51,7.07-19.19,13.9-28.8,20.82-.99,.71-2.02,1.38-3.69,2.51Zm27.29-109.52c-1.81,0-3.15,0-4.49,0-7.98,0-15.96-.04-23.94,.03-3.77,.04-6.24,2.31-6.26,5.49-.03,3.18,2.44,5.53,6.16,5.68,2.61,.11,5.24,.16,7.85,0,2.35-.15,3.34,.59,4.11,3.02,1.77,5.55,3.84,11.06,6.37,16.3,2.19,4.54,5.17,8.69,7.93,13.22-1.41,1.22-2.66,2.69-4.23,3.6-7.19,4.17-14.53,8.08-21.68,12.33-1.76,1.05-3.65,2.82-4.2,4.64-.44,1.46,.58,4.4,1.83,5.08,1.77,.96,4.62,1.19,6.53,.46,10.88-4.14,20.97-9.74,29.49-18,.72,.55,1.23,.88,1.67,1.29,8.17,7.57,17.84,12.65,28.05,16.82,3.77,1.54,6.98,.53,8.32-2.49,1.35-3.06-.04-5.96-3.81-7.74-3.04-1.44-6.16-2.69-9.17-4.19-6.34-3.17-12.25-6.96-17.2-12.19,7.05-9.17,11.92-19.03,14.85-29.88,.25-.92,1.72-2.03,2.71-2.12,3.22-.28,6.49,.04,9.71-.2,3.17-.23,5.4-2.85,5.31-5.72-.09-2.96-2.34-5.19-5.62-5.36-2.49-.13-4.99-.05-7.48-.06-7.06,0-14.12,0-21.59,0,0-1.81,0-3.16,0-4.5,0-1.5,.05-3-.03-4.49-.21-3.93-2.26-6.12-5.61-6.11-3.33,.01-5.4,2.23-5.56,6.16-.11,2.83-.02,5.67-.02,8.95Z"/>
    <path class="cls-1" d="M219.78,334.75c0-4.2,.04-7.77,0-11.34-.13-10.24-5.83-15.85-16.12-15.91-2.87-.02-5.74,.1-8.6-.05-5.4-.28-8.41-3.16-8.42-8.49-.07-30.44-.07-60.87,0-91.31,.01-5.26,3.23-8.34,8.53-8.35,38.29-.05,76.58-.05,114.86,0,5.5,0,8.61,3.05,8.62,8.63,.07,30.31,.08,60.62,0,90.93-.02,5.82-3.18,8.59-9.44,8.61-14.59,.06-29.18,.13-43.77-.04-5.11-.06-9.43,1.31-13.53,4.36-9.39,7.01-18.97,13.77-28.48,20.61-.97,.7-2.01,1.29-3.65,2.33Zm35.27-86.76c.27-1.03,.43-1.72,.62-2.4,3.88-13.87-5.35-26.08-19.81-26.18-4.74-.03-9.48-.04-14.21,0-4.32,.04-6.85,2.22-6.76,5.74,.08,3.37,2.53,5.42,6.66,5.47,4.49,.05,8.98,0,13.47,.02,1,0,2.01-.04,2.99,.12,4.23,.69,7.43,4.42,7.46,8.6,.04,4.38-3.14,8.32-7.72,8.61-6.33,.41-12.71,.17-19.06,.37-3.44,.11-5.47,2.24-5.55,5.34-.08,3.11,1.85,5.24,5.23,5.69,1.11,.15,2.24,.13,3.36,.13,4.86,.02,9.73-.09,14.59,.05,5.46,.15,9.21,3.88,9.15,8.83-.06,4.94-3.94,8.63-9.35,8.65-8.28,.03-16.1-1.33-22.53-7.27-2.64-2.44-5.86-2.2-8.01,.1-2.2,2.36-1.92,5.68,.7,8.31,.18,.18,.36,.34,.55,.51,9.8,8.61,21.51,10.87,33.89,8.98,8.71-1.33,14.06-7.32,15.52-16.06,.63-3.79,.11-7.77,.11-11.87h20.66c0,1.57,0,2.91,0,4.25,0,6.24-.08,12.47,.05,18.7,.07,3.25,2.44,5.49,5.4,5.57,2.96,.08,5.36-2.1,5.72-5.29,.11-.99,.05-1.99,.05-2.99,0-15.09,0-30.18,0-45.27v-4.08c2.69,0,4.8,.06,6.91-.01,3.76-.14,6.07-2.37,6.01-5.7-.05-3.18-2.29-5.43-5.85-5.47-8.48-.09-16.96-.09-25.43,0-3.54,.04-5.81,2.32-5.86,5.48-.05,3.31,2.29,5.56,6.04,5.69,2.2,.08,4.42,.01,6.67,.01v17.37h-21.68Z"/>
    <path class="cls-1" d="M323.18,192.57c-4.49-3.55-9.44-4.63-14.86-4.57-11.71,.13-23.42,.04-35.13,.04h-4.21c.06-4.84,2.1-8.41,5.14-11.49,8.55-8.65,14.36-18.73,16.05-30.92,.49-3.57,.94-7.18,1-10.78,.05-3.14,1.63-4.26,4.37-4.28,8.1-.05,16.19-.07,24.29,.04,.96,.01,2.14,.64,2.82,1.37,13.52,14.47,13.88,44.98,.53,60.59Z"/>
    <path class="cls-1" d="M149.67,85.58c-5.55-5.54-11.51-6.45-17.96-6.34-12.45,.2-24.9,.06-38.52,.06,13.47-12.16,27.74-21.11,43.59-28.25,8.88,9.41,13.3,20.43,12.9,34.54Z"/>
    <path class="cls-1" d="M89.32,155.82h-24.19c3.95-10.46,7.78-20.61,12.03-31.87,4.27,11.2,8.14,21.32,12.16,31.87Z"/>
    <path d="M278.89,37.32c0-3.28-.09-6.11,.02-8.95,.15-3.93,2.23-6.15,5.56-6.16,3.35-.01,5.39,2.19,5.61,6.11,.08,1.49,.02,2.99,.03,4.49,0,1.35,0,2.69,0,4.5,7.47,0,14.53,0,21.59,0,2.49,0,4.99-.08,7.48,.06,3.28,.17,5.53,2.4,5.62,5.36,.09,2.87-2.14,5.49-5.31,5.72-3.22,.24-6.49-.09-9.71,.2-.99,.09-2.46,1.2-2.71,2.12-2.93,10.85-7.8,20.71-14.85,29.88,4.96,5.23,10.87,9.02,17.2,12.19,3,1.5,6.13,2.75,9.17,4.19,3.77,1.78,5.16,4.68,3.81,7.74-1.33,3.03-4.55,4.03-8.32,2.49-10.21-4.17-19.87-9.25-28.05-16.82-.44-.41-.95-.74-1.67-1.29-8.52,8.26-18.61,13.86-29.49,18-1.91,.73-4.76,.5-6.53-.46-1.25-.68-2.27-3.62-1.83-5.08,.55-1.82,2.45-3.59,4.2-4.64,7.14-4.25,14.49-8.16,21.68-12.33,1.57-.91,2.83-2.38,4.23-3.6-2.76-4.53-5.74-8.68-7.93-13.22-2.53-5.25-4.6-10.75-6.37-16.3-.77-2.43-1.76-3.17-4.11-3.02-2.61,.16-5.24,.12-7.85,0-3.72-.16-6.19-2.51-6.16-5.68,.03-3.18,2.49-5.45,6.26-5.49,7.98-.07,15.96-.03,23.94-.03,1.34,0,2.68,0,4.49,0Zm-5.84,11.4c2.6,8.72,5.97,16.38,12.14,24.1,4.04-8.42,7.65-15.95,11.57-24.1h-23.7Z"/>
    <path d="M255.05,247.99h21.68v-17.37c-2.26,0-4.47,.07-6.67-.01-3.76-.14-6.09-2.39-6.04-5.69,.05-3.16,2.32-5.44,5.86-5.48,8.48-.09,16.96-.09,25.43,0,3.56,.04,5.8,2.29,5.85,5.47,.05,3.33-2.25,5.56-6.01,5.7-2.11,.08-4.22,.01-6.91,.01v4.08c0,15.09,0,30.18,0,45.27,0,1,.07,2-.05,2.99-.37,3.19-2.76,5.37-5.72,5.29-2.96-.08-5.33-2.32-5.4-5.57-.13-6.23-.05-12.47-.05-18.7,0-1.34,0-2.68,0-4.25h-20.66c0,4.1,.53,8.08-.11,11.87-1.46,8.74-6.81,14.73-15.52,16.06-12.37,1.89-24.08-.38-33.89-8.98-.19-.16-.37-.33-.55-.51-2.62-2.64-2.9-5.96-.7-8.31,2.15-2.3,5.37-2.54,8.01-.1,6.43,5.94,14.25,7.3,22.53,7.27,5.41-.02,9.29-3.71,9.35-8.65,.06-4.95-3.69-8.67-9.15-8.83-4.86-.13-9.72-.03-14.59-.05-1.12,0-2.25,.02-3.36-.13-3.39-.45-5.31-2.58-5.23-5.69,.08-3.1,2.11-5.23,5.55-5.34,6.35-.21,12.72,.04,19.06-.37,4.58-.3,7.75-4.23,7.72-8.61-.03-4.17-3.24-7.9-7.46-8.6-.98-.16-1.99-.12-2.99-.12-4.49-.01-8.98,.03-13.47-.02-4.13-.04-6.58-2.1-6.66-5.47-.09-3.52,2.44-5.7,6.76-5.74,4.74-.04,9.48-.04,14.21,0,14.46,.1,23.69,12.32,19.81,26.18-.19,.68-.36,1.38-.62,2.4Z"/>
    <path class="cls-1" d="M273.05,48.72h23.7c-3.91,8.16-7.52,15.68-11.57,24.1-6.16-7.72-9.54-15.39-12.14-24.1Z"/>
  </g>
</svg>