<?xml version="1.0" encoding="UTF-8"?>
<svg id="Layer_1" data-name="Layer 1" xmlns="http://www.w3.org/2000/svg" viewBox="0 0 383.27 383.25">
  <path d="M383.27,215.58c-.98,7.01-1.75,14.06-2.98,21.03-4.43,25.16-14.13,48.19-28.58,69.23-2.43,3.55-5.82,4.45-8.61,2.5-2.87-2.01-3.17-5.13-.61-8.87,15.72-22.96,25.31-48.23,28.43-75.88,3.74-33.21-1.96-64.8-16.87-94.71-.21-.43-.55-.79-.33-.48-6.05,.99-11.61,1.9-17.42,2.84,.11,.34,.28,1.13,.63,1.83,11.94,23.54,9.41,45.97-5.32,67.37-1.43,2.08-1.86,3.96-1.85,6.46,.13,30.94,.25,61.88,0,92.81-.1,11.44-8.39,18.8-20.31,18.89-14.72,.11-29.44,0-44.16,.06-1.79,0-3.57,.4-5.35,.62-.24,.4-.47,.8-.71,1.2,8.16,10.43,16.32,20.86,24.78,31.68,4.19-2.54,8.47-4.6,12.14-7.47,9.22-7.2,18.16-14.76,27.19-22.19,.67-.55,1.22-1.25,1.86-1.84,2.77-2.52,6.07-2.68,8.34-.41,2.38,2.38,2.5,5.68-.42,8.25-8.88,7.82-17.42,16.18-27.07,22.92-32.87,22.96-69.64,33.28-109.68,31.69-78.64-3.12-147.32-59.53-165.5-136.19-2.46-10.37-3.25-21.14-4.78-31.73-.25-1.71-.32-3.44-.5-5.49-2.24,0-4.21,.02-6.19,0C8.14,209.53,.07,201.53,.04,190.26c-.06-27.57-.02-55.14-.02-82.71,0-3.24-.06-6.49,.02-9.73,.28-10.2,8.19-18.2,18.34-18.51,3.99-.12,7.98-.11,11.97-.02,3.62,.09,5.81,2.22,5.86,5.44,.05,3.16-2.17,5.54-5.67,5.7-3.74,.17-7.49-.02-11.23,.08-4.89,.14-8.03,3.12-8.04,7.97-.06,30.69-.06,61.38,0,92.06,.01,4.97,3.25,7.88,8.47,7.89,14.84,.05,29.69,.1,44.53-.03,5.09-.04,9.44,1.37,13.54,4.4,10.41,7.7,20.99,15.18,32.24,23.28,0-4.19,0-7.71,0-11.22,.03-10.52,5.89-16.35,16.5-16.41,2.74-.01,5.49,.04,8.23-.02,5.52-.12,8.31-2.98,8.32-8.77,.05-17.46,.02-34.93,.02-52.39,0-12.35,.02-24.7,0-37.05-.01-7.15-2.56-9.74-9.64-9.74-24.7-.02-49.4,0-74.1-.04-1.71,0-3.56-.14-5.08-.81-2.44-1.07-3.32-3.31-2.8-5.92,.55-2.81,2.4-4.37,5.24-4.42,5.61-.1,11.23,.11,16.84-.15,1.78-.08,3.95-.81,5.19-2.02,28.45-27.67,62.29-44.38,101.57-49.88,8.73-1.22,17.6-1.47,26.93-2.21,0-1.47,0-3.17,0-4.87,.06-9.91,4.55-16.21,13.82-19.46,.44-.15,.82-.47,1.23-.72,41.42,0,82.84,0,124.26,0,11.4,3.96,15.37,12.12,15.18,23.94-.46,28.43-.15,56.88-.16,85.32,0,1.74-.26,3.5-.11,5.23,.18,2.11,.14,4.46,1.07,6.25,8.56,16.49,14.69,33.79,17.8,52.12,1.14,6.73,1.94,13.51,2.9,20.27v22.46Zm-228.93-47.69c0,7.88,.18,15.86-.05,23.83-.28,9.84-8.24,17.6-18.05,17.93-2.49,.09-4.99,.03-7.48,.03-7.21,0-7.44,.23-7.45,7.25,0,3.37-.08,6.74,.02,10.1,.14,4.51-1.4,8.12-5.51,10.22-4.11,2.1-7.91,1.18-11.53-1.47-7.24-5.3-15.01-9.99-21.72-15.89-9.37-8.25-19.67-11.9-32.07-10.3-4.37,.57-8.87,.09-13.53,.09,.84,23.36,6.04,45.05,15.85,65.95,1.25-.93,2.18-1.74,3.22-2.37,5.4-3.31,10.56-7.2,16.31-9.71,11.6-5.05,21.07-2.15,29.49,7.31,2.35,2.64,5.77,4.89,9.13,5.99,11.01,3.63,20.66,.27,28.15-9.08,2.99-3.74,6.04-4.6,8.87-2.51,2.98,2.2,2.95,5.55-.04,9.51-15.73,20.78-44.68,17.94-55.76,2.38-3-4.21-7.53-5.68-12.64-4.28-8.41,2.3-14.85,7.76-21.31,13.11,47,83.51,146.27,104.16,215.18,70.89-7.76-9.9-15.49-19.76-23.41-29.86-1.09,.77-2.3,1.6-3.49,2.46-6.98,5.02-13.98,10.02-20.93,15.09-3.6,2.63-7.35,3.66-11.52,1.54-4.16-2.12-5.61-5.74-5.55-10.21,.05-4.12-.08-8.23,.03-12.35,.09-3.43-1.24-5.16-4.84-4.95-2.36,.14-4.74,.04-7.11,.02-13.6-.09-21.26-7.8-21.27-21.45-.01-23.57,0-47.15-.01-70.72,0-1.3-.12-2.59-.2-4.31-6.11,3.81-9.62,8.92-11.75,15.07-1.06,3.06-1.84,6.21-2.97,9.24-1.29,3.49-4.38,5.09-7.34,4.05-2.86-1.01-4.22-3.88-3.27-7.4,.81-3,1.85-5.94,2.8-8.91,3.43-10.77,10.21-18.64,20.26-23.83,1.12-.58,2.27-2.2,2.39-3.44,1.06-11.72,8.69-18.94,20.42-18.96,19.21-.03,38.42,0,57.62,0,1.34,0,2.69,0,4.19,0,.54-8.61,4.33-15.22,10.05-21.03,2.59-2.63,4.74-5.8,6.65-8.98,2.98-4.99,4.77-10.43,4.97-16.9-1.52,1.03-2.55,1.69-3.54,2.4-6.08,4.36-12.14,8.74-18.21,13.11-3.59,2.59-7.42,3.6-11.55,1.46-4.11-2.13-5.63-5.74-5.51-10.23,.07-2.74,.01-5.49,.01-8.23,0-9.1,0-8.99-8.95-9.14-3.03-.05-4.25,.59-4.71,3.94-3.47,25.43-27.91,43.57-53.2,39.28-6.39-1.08-12.52-3.73-19.13-5.77Zm97.2-21.13c1.62-1.08,2.65-1.73,3.63-2.43,9.62-6.92,19.29-13.75,28.8-20.81,4-2.97,8.27-4.31,13.21-4.27,14.47,.1,28.94,.05,43.41,.03,7.18-.01,9.79-2.58,9.79-9.6,.01-29.69,.01-59.38,0-89.07,0-6.55-2.79-9.35-9.34-9.35-37.8-.02-75.6-.02-113.4,0-6.32,0-9.12,2.83-9.13,9.16-.03,13.6,0,27.2-.01,40.79,0,1,.05,2-.03,2.99-.29,3.51-2.54,5.73-5.7,5.7-3.22-.03-5.42-2.22-5.46-5.83-.09-7.61-.04-15.22-.04-22.83,0-1.33,0-2.67,0-4.41-20.54-.11-40.05,2.91-58.96,9.65,2.47,4.14,5.22,7.9,7.1,12.05,6.5,14.39,8.63,28.87-.38,43.21-.49,.78-.62,1.89-.63,2.85-.04,15.47-.06,30.94,.04,46.41,0,1.16,.72,2.71,1.62,3.39,8.25,6.23,17.56,9.58,27.94,8.43,17.74-1.97,30.41-15.23,31.96-33.12,.09-1.05-.77-2.5-1.63-3.25-4.69-4.12-7.15-9.15-7.09-15.43,.06-6.36-.01-12.72,.02-19.09,.02-4.44,2.06-6.87,5.6-6.85,3.49,.03,5.57,2.54,5.61,6.93,.05,6.11-.02,12.23,.02,18.34,.04,6.12,2.77,8.8,8.95,8.94,3.86,.09,7.76-.13,11.58,.34,7.28,.89,12.31,6.71,12.48,14.06,.1,4.11,.02,8.22,.02,13.09Zm-31.8,187.98c1.72-1.14,2.75-1.78,3.74-2.49,9.51-6.85,19.07-13.62,28.48-20.6,3.99-2.96,8.19-4.35,13.17-4.3,14.21,.16,28.43,.06,42.65,.05,8.39,0,10.87-2.52,10.87-10.99,0-28.81,0-57.61,0-86.42,0-.87,.03-1.75-.03-2.62-.36-5.11-3.27-7.95-8.38-8.15-1.25-.05-2.49-.01-3.74-.01-36.66,0-73.33,0-109.99,0-7.13,0-9.92,2.81-9.95,9.98-.01,2.87,0,5.74,0,8.6,0,26.69-.02,53.37,.01,80.06,0,6.48,2.88,9.38,9.31,9.53,2.62,.06,5.24,0,7.86,.02,10.25,.07,15.89,5.7,16.01,16.02,.04,3.48,0,6.95,0,11.31Zm103.68-141.96c1.34-2.23,2.64-4.05,3.59-6.03,8.79-18.22,8.63-36-3.03-53.03-.94-1.38-2.73-3.02-4.17-3.07-8.21-.29-16.44-.18-24.65-.1-2.62,.03-3.96,1.34-4.02,4.23-.07,3.6-.5,7.2-1,10.78-1.64,11.77-7.05,21.66-15.28,30.09-3.28,3.36-5.84,7.04-5.92,12.34,1.5,0,2.84,0,4.19,0,10.71,0,21.42,.1,32.13-.04,6.43-.08,12.7,.13,18.16,4.84ZM94.31,79.25c11.06,0,22.13,.05,33.19-.02,7.71-.04,15.54-.74,22.12,6.36,.43-14.15-4-25.15-12.86-34.57-15.83,7.03-30.02,16.09-42.46,28.23Z"/>
  <path d="M109.42,177.75c-.21,3.19-1.53,5.14-4.34,5.75-2.94,.63-5.2-.48-6.38-3.26-1.45-3.44-2.84-6.91-4.03-10.45-.66-1.98-1.68-2.68-3.78-2.66-9.1,.11-18.21,.11-27.31,0-2.08-.03-3.15,.6-3.8,2.6-1.07,3.31-2.36,6.56-3.68,9.78-1.45,3.54-4.29,4.94-7.41,3.84-3.01-1.06-4.38-4.2-3.06-7.7,8.18-21.79,16.43-43.55,24.64-65.33,1.18-3.13,3.3-4.98,6.68-5.04,3.53-.06,5.79,1.76,7.04,5.05,8.22,21.64,16.48,43.27,24.71,64.91,.35,.92,.55,1.89,.72,2.5Zm-20.13-21.97c-4.01-10.5-7.89-20.67-12.17-31.88-4.26,11.32-8.08,21.46-12,31.88h24.17Z"/>
  <path d="M276.86,80.77c-7.14-9.3-12.14-19.23-14.98-30.24-.21-.83-1.6-1.83-2.52-1.91-2.85-.25-5.73-.04-8.59-.11-4.03-.1-6.58-2.33-6.6-5.63-.02-3.29,2.53-5.54,6.57-5.56,7.85-.06,15.71-.02,23.56-.02,1.34,0,2.68,0,4.54,0,0-1.98,0-3.56,0-5.14,0-7.33,1.43-9.9,5.53-9.97,4.24-.06,5.69,2.53,5.7,10.16,0,1.47,0,2.94,0,4.95,2.8,0,5.24,0,7.68,0,6.98,0,13.96-.05,20.94,.04,3.57,.05,5.92,2.23,6.06,5.31,.14,3.15-2.34,5.64-5.98,5.86-3.7,.22-8.39-1-10.82,.84-2.45,1.85-2.33,6.83-3.92,10.17-3.42,7.16-7.21,14.14-11.2,21.88,1.61,1.34,3.72,3.66,6.31,5.17,6.23,3.61,12.73,6.74,18.99,10.3,1.72,.98,3.69,2.51,4.26,4.22,.5,1.49-.26,4.53-1.43,5.2-1.86,1.07-4.85,1.59-6.8,.85-10.43-3.94-20.15-9.22-28.38-16.91-.35-.33-.79-.57-1.47-1.05-8.46,8.17-18.57,13.69-29.36,18.06-4.87,1.97-8.89-.28-8.76-4.89,.09-2.94,2.05-4.21,4.37-5.47,7.31-3.96,14.55-8.04,21.75-12.2,1.58-.91,2.83-2.39,4.57-3.89Zm-3.78-32.08c2.35,8.57,5.9,16.18,11.4,23.38,5.38-7.26,9.09-14.79,11.28-23.38h-22.68Z"/>
  <path d="M256.27,259.73c0,4.13,.54,8.14-.11,11.94-1.46,8.57-6.74,14.49-15.29,15.84-12.51,1.99-24.31-.33-34.22-9.03-2.18-1.92-3.21-4.15-2.2-6.97,1.32-3.66,5.8-4.82,8.92-1.97,6.55,6.01,14.45,7.45,22.87,7.38,5.35-.05,9.23-3.88,9.18-8.81-.05-4.83-3.69-8.49-8.94-8.65-5.48-.16-10.97,0-16.46-.08-4.51-.07-6.9-2.08-6.93-5.59-.03-3.57,2.33-5.55,6.84-5.6,5.11-.05,10.22,.07,15.33-.04,6.3-.13,10.31-3.79,10.15-9.05-.16-5.14-4.18-8.52-10.24-8.55-4.61-.03-9.23,.04-13.84-.02-4.04-.05-6.51-2.25-6.5-5.63,.01-3.36,2.49-5.52,6.56-5.57,4.86-.05,9.72-.05,14.59,0,14.38,.13,23.56,12.49,19.59,26.33-.17,.59-.31,1.18-.56,2.16h21.74v-17.28c-2.16,0-4.35,.05-6.54-.01-3.83-.11-6.18-2.21-6.25-5.49-.06-3.31,2.27-5.65,6.02-5.69,8.35-.08,16.71-.08,25.06,0,3.78,.04,6.09,2.32,6.06,5.64-.03,3.3-2.36,5.42-6.18,5.54-2.1,.06-4.2,.01-6.74,.01,0,1.59,0,2.92,0,4.24,0,14.96,0,29.92,0,44.88,0,1,.06,2-.04,2.99-.31,3.24-2.57,5.46-5.53,5.5-3.1,.04-5.55-2.3-5.62-5.74-.12-6.11-.04-12.22-.04-18.33,0-1.35,0-2.71,0-4.37h-20.69Z"/>
</svg>